<?xml version="1.0" encoding="UTF-8"?>
<!--Generator: Apple Native CoreSVG 232.5-->
<!DOCTYPE svg
PUBLIC "-//W3C//DTD SVG 1.1//EN"
       "http://www.w3.org/Graphics/SVG/1.1/DTD/svg11.dtd">
<svg version="1.1" xmlns="http://www.w3.org/2000/svg" xmlns:xlink="http://www.w3.org/1999/xlink" width="255" height="255.125">
 <g>
  <rect height="255.125" opacity="0" width="255" x="0" y="0"/>
  <path d="M127.5 255C197.25 255 255 197.125 255 127.5C255 57.75 197.125 0 127.375 0C57.75 0 0 57.75 0 127.5C0 197.125 57.875 255 127.5 255Z" fill="#0a84ff"/>
  <path d="M134.5 188.875C128 188.875 124.25 184.5 124.25 177.25L124.25 88.625L123.375 88.625L106.75 99.625C103.75 101.625 102.375 101.875 100.375 101.875C96.25 101.875 93 98.125 93 94.125C93 90.875 94.25 89 97 86.875L120.25 71.125C125.75 67.375 129.125 66.125 134 66.125C140.875 66.125 144.875 70.25 144.875 77.75L144.875 177.25C144.875 184.5 141.125 188.875 134.5 188.875Z" fill="#ffffff"/>
 </g>
</svg>
