<?xml version="1.0" encoding="UTF-8"?>
<!--Generator: Apple Native CoreSVG 232.5-->
<!DOCTYPE svg
PUBLIC "-//W3C//DTD SVG 1.1//EN"
       "http://www.w3.org/Graphics/SVG/1.1/DTD/svg11.dtd">
<svg version="1.1" xmlns="http://www.w3.org/2000/svg" xmlns:xlink="http://www.w3.org/1999/xlink" width="255" height="255.125">
 <g>
  <rect height="255.125" opacity="0" width="255" x="0" y="0"/>
  <path d="M127.5 255C197.25 255 255 197.125 255 127.5C255 57.75 197.125 0 127.375 0C57.75 0 0 57.75 0 127.5C0 197.125 57.875 255 127.5 255Z" fill="#0a84ff"/>
  <path d="M98.25 186C92.5 186 89 182.75 89 177.5C89 174.875 90.25 172.25 92.375 169.75L133.625 125.625C141.25 117.625 149.125 109.75 149.125 100.375C149.125 89.75 141 82.625 128.75 82.625C116.375 82.625 109.5 90.875 106.125 98.625C103.875 102.25 101.5 105.125 97 105.125C91.875 105.125 88.5 101.875 88.5 96.875C88.5 95.125 88.625 93.625 89.25 91.625C93.5 77.25 109.625 66.125 127.875 66.125C151.75 66.125 167.5 79.25 167.5 98.75C167.5 113.125 159.5 123.375 148.125 135.5L117.625 168.125L117.625 169L164.5 169C169.625 169 173.25 172.125 173.25 177.5C173.25 182.75 169.625 186 164.5 186Z" fill="#ffffff"/>
 </g>
</svg>
