<?xml version="1.0" encoding="UTF-8"?>
<!--Generator: Apple Native CoreSVG 232.5-->
<!DOCTYPE svg
PUBLIC "-//W3C//DTD SVG 1.1//EN"
       "http://www.w3.org/Graphics/SVG/1.1/DTD/svg11.dtd">
<svg version="1.1" xmlns="http://www.w3.org/2000/svg" xmlns:xlink="http://www.w3.org/1999/xlink" width="255" height="255.125">
 <g>
  <rect height="255.125" opacity="0" width="255" x="0" y="0"/>
  <path d="M127.5 255C197.25 255 255 197.125 255 127.5C255 57.75 197.125 0 127.375 0C57.75 0 0 57.75 0 127.5C0 197.125 57.875 255 127.5 255Z" fill="#0a84ff"/>
  <path d="M127.875 188.875C106.75 188.875 90 178.75 86.125 163.875C85.75 162 85.5 160.875 85.5 159C85.5 153.75 89.25 150.125 94.5 150.125C99 150.125 101.625 152.25 103.375 156.75C106.5 165.625 114.25 172.375 128.25 172.375C143.25 172.375 153.375 164.875 153.375 153.25C153.375 141.625 143.375 133.625 128.875 133.625L120.125 133.625C115.375 133.625 112 130.25 112 125.75C112 120.875 115.375 117.625 120.125 117.625L128.25 117.625C140.5 117.625 149.5 109.875 149.5 99.25C149.5 88.875 141.5 82.5 128.625 82.5C116.625 82.5 108.625 88.5 105.75 98.125C104.25 102.625 101.5 104.875 96.875 104.875C91.75 104.875 88.125 101.375 88.125 96.25C88.125 94.375 88.25 93 88.625 91.125C92.125 75.875 108 66.125 129 66.125C152.125 66.125 168.625 79 168.625 97C168.625 110.5 158.625 122.375 145.625 124.25L145.625 125.25C161.25 126.75 172.75 138.875 172.75 154C172.75 174.375 155.625 188.875 127.875 188.875Z" fill="#ffffff"/>
 </g>
</svg>
