<?xml version="1.0" encoding="UTF-8"?>
<!--Generator: Apple Native CoreSVG 232.5-->
<!DOCTYPE svg
PUBLIC "-//W3C//DTD SVG 1.1//EN"
       "http://www.w3.org/Graphics/SVG/1.1/DTD/svg11.dtd">
<svg version="1.1" xmlns="http://www.w3.org/2000/svg" xmlns:xlink="http://www.w3.org/1999/xlink" width="255" height="255.125">
 <g>
  <rect height="255.125" opacity="0" width="255" x="0" y="0"/>
  <path d="M127.5 255C197.25 255 255 197.125 255 127.5C255 57.75 197.125 0 127.375 0C57.75 0 0 57.75 0 127.5C0 197.125 57.875 255 127.5 255Z" fill="#0a84ff"/>
  <path d="M144.375 186.25C138.375 186.25 134.875 182.125 134.875 175.375L134.875 162.25L88.625 162.25C80.375 162.25 75.25 157.25 75.25 149.625C75.25 145.75 76.125 142.625 78.75 138.25C89.375 120.875 105.25 97.375 118.625 77.125C123.75 69.375 129.5 66.125 138.5 66.125C147.75 66.125 154 71.625 154 79.75L154 145.25L163.875 145.25C169 145.25 172.375 148.75 172.375 153.875C172.375 158.875 168.875 162.25 163.875 162.25L154 162.25L154 175.375C154 182.25 150.5 186.25 144.375 186.25ZM134.875 145.25L134.875 82.875L134 82.875C120.5 103.25 104.125 127.625 94.25 144.5L94.25 145.25Z" fill="#ffffff"/>
 </g>
</svg>
