<?xml version="1.0" encoding="UTF-8"?>
<!--Generator: Apple Native CoreSVG 232.5-->
<!DOCTYPE svg
PUBLIC "-//W3C//DTD SVG 1.1//EN"
       "http://www.w3.org/Graphics/SVG/1.1/DTD/svg11.dtd">
<svg version="1.1" xmlns="http://www.w3.org/2000/svg" xmlns:xlink="http://www.w3.org/1999/xlink" width="255" height="255.125">
 <g>
  <rect height="255.125" opacity="0" width="255" x="0" y="0"/>
  <path d="M127.5 255C197.25 255 255 197.125 255 127.5C255 57.75 197.125 0 127.375 0C57.75 0 0 57.75 0 127.5C0 197.125 57.875 255 127.5 255Z" fill="#0a84ff"/>
  <path d="M126.75 188.875C106.125 188.875 91.125 180.625 86 167.5C85.125 165.5 84.625 163.5 84.625 161.25C84.625 156.25 88.125 152.625 93.375 152.625C97.125 152.625 100.25 154.75 102.5 158.875C106.75 167.375 115.75 172.625 126.375 172.625C140.625 172.625 151.25 162.125 151.25 148C151.25 133.75 142.125 124.25 128.5 124.25C122 124.25 117.125 126.25 111 131.5C105.75 135.375 102.875 136.375 98.125 136.375C91 136.375 86.625 131.5 87.125 124L90.75 81.25C91.25 73.75 96.75 69 105.25 69L158.625 69C163.125 69 166.25 72.25 166.25 77C166.25 81.625 163 85 158.625 85L107.125 85L104.125 119.875L105 119.875C109.625 113.5 120.375 108.875 130.875 108.875C154.5 108.875 170.875 124.75 170.875 147.5C170.875 172.5 152.875 188.875 126.75 188.875Z" fill="#ffffff"/>
 </g>
</svg>
