<?xml version="1.0" encoding="UTF-8"?>
<!--Generator: Apple Native CoreSVG 232.5-->
<!DOCTYPE svg
PUBLIC "-//W3C//DTD SVG 1.1//EN"
       "http://www.w3.org/Graphics/SVG/1.1/DTD/svg11.dtd">
<svg version="1.1" xmlns="http://www.w3.org/2000/svg" xmlns:xlink="http://www.w3.org/1999/xlink" width="255" height="255.125">
 <g>
  <rect height="255.125" opacity="0" width="255" x="0" y="0"/>
  <path d="M127.5 255C197.25 255 255 197.125 255 127.5C255 57.75 197.125 0 127.375 0C57.75 0 0 57.75 0 127.5C0 197.125 57.875 255 127.5 255Z" fill="#0a84ff"/>
  <path d="M128.5 188.875C113.375 188.875 99.25 183.375 91 169.625C85.5 161 82.375 148.125 82.375 130.375C82.375 87.375 101.25 66.125 131.75 66.125C148.375 66.125 162.5 74.5 166.5 84C167.25 85.875 167.625 87.625 167.625 89.75C167.625 94.25 164.25 97.375 159.875 97.375C155.5 97.375 152.875 95.125 148.75 91C145.125 86.5 140 82.625 131.125 82.625C113.375 82.625 101.375 99.5 101.375 125.875C101.375 126.25 101.375 126.625 101.375 127.25C101.625 127.25 102.125 127.25 102.375 127.25C106.5 117.875 116.625 109.125 133.875 109.125C154.25 109.125 172.75 122.875 172.75 147.375C172.75 173.75 154.5 188.875 128.5 188.875ZM127.625 173.375C142.75 173.375 152.5 163.375 152.5 148.25C152.5 133.875 142.375 123.875 127.75 123.875C113.25 123.875 103 134 103 148.125C103 162.75 113.375 173.375 127.625 173.375Z" fill="#ffffff"/>
 </g>
</svg>
