<?xml version="1.0" encoding="UTF-8"?>
<!--Generator: Apple Native CoreSVG 232.5-->
<!DOCTYPE svg
PUBLIC "-//W3C//DTD SVG 1.1//EN"
       "http://www.w3.org/Graphics/SVG/1.1/DTD/svg11.dtd">
<svg version="1.1" xmlns="http://www.w3.org/2000/svg" xmlns:xlink="http://www.w3.org/1999/xlink" width="255" height="255.125">
 <g>
  <rect height="255.125" opacity="0" width="255" x="0" y="0"/>
  <path d="M127.5 255C197.25 255 255 197.125 255 127.5C255 57.75 197.125 0 127.375 0C57.75 0 0 57.75 0 127.5C0 197.125 57.875 255 127.5 255Z" fill="#0a84ff"/>
  <path d="M110.125 188.75C104.5 188.75 99.875 184.875 99.875 179.375C99.875 176.75 100.5 175 101.625 172.75L149 86L149 85L94.25 85C89.875 85 86.625 81.625 86.625 77C86.625 72.25 89.75 69 94.25 69L157.375 69C165.75 69 171.5 74.375 171.5 81.5C171.5 84.25 170.875 86.875 168.375 91.625L120.25 181.625C117.75 186.625 114.625 188.75 110.125 188.75Z" fill="#ffffff"/>
 </g>
</svg>
