<?xml version="1.0" encoding="UTF-8"?>
<!--Generator: Apple Native CoreSVG 232.5-->
<!DOCTYPE svg
PUBLIC "-//W3C//DTD SVG 1.1//EN"
       "http://www.w3.org/Graphics/SVG/1.1/DTD/svg11.dtd">
<svg version="1.1" xmlns="http://www.w3.org/2000/svg" xmlns:xlink="http://www.w3.org/1999/xlink" width="255" height="255.125">
 <g>
  <rect height="255.125" opacity="0" width="255" x="0" y="0"/>
  <path d="M127.5 255.125C197.25 255.125 255 197.375 255 127.625C255 58 197.125 0.125 127.375 0.125C57.75 0.125 0 58 0 127.625C0 197.375 57.875 255.125 127.5 255.125Z" fill="#32d74b"/>
  <path d="M70 133.5C70 101.875 96 77.125 125 77.125C126.125 77.125 127.5 77.25 128.5 77.375L119.5 68.125C118.125 66.625 117.125 64.375 117.125 62.125C117.125 57.5 120.625 53.875 125.375 53.875C127.625 53.875 129.875 54.875 131.25 56.5L156 81.625C159 84.875 159.25 90.5 156 93.625L131 118.625C129.625 120 127.5 121.125 125.375 121.125C120.75 121.125 117.125 117.5 117.125 112.875C117.125 110.625 118.125 108.5 119.625 107L132.125 94.625C130.875 94.375 129.125 94.25 127.5 94.25C105.5 94.25 87.875 112 87.875 134C87.875 156.125 105.5 173.875 127.5 173.875C149.5 173.875 167.125 156.125 167.125 134C167.125 129.125 171.25 125.125 176.125 125.125C180.875 125.125 185 129.125 185 134C185 165.75 159.375 191.625 127.5 191.625C95.625 191.625 70 165.75 70 133.5Z" fill="#ffffff"/>
 </g>
</svg>
