<svg width="295" height="296" viewBox="0 0 295 296" fill="none" xmlns="http://www.w3.org/2000/svg">
<g clip-path="url(#clip0_68_5527)">
<path d="M39.75 296.725H256C282.25 296.725 295.25 283.797 295.25 257.939L295.5 40.637C295.5 14.7796 282.5 1.72534 256.25 1.72534H40C13.875 1.72534 0.75 14.7796 0.75 40.637L0.5 257.939C0.5 283.797 13.625 296.725 39.75 296.725ZM40 276.516C27.5 276.516 20.625 269.864 20.625 256.81L20.875 41.7667C20.875 28.7124 27.75 21.9343 40.25 21.9343H256C268.375 21.9343 275.375 28.7124 275.375 41.7667L275.125 256.81C275.125 269.864 268.125 276.516 255.75 276.516H40Z" fill="#FF9F0A"/>
<path d="M159.125 206.938H247.625C255.5 206.938 258.625 203.688 258.625 195.688V102.438C258.625 94.4375 255.5 91.1875 247.625 91.1875H159.125C151.25 91.1875 148.125 94.4375 148.125 102.438V195.688C148.125 203.688 151.25 206.938 159.125 206.938ZM43.625 148.938C43.75 153.438 47.375 157.438 51.75 157.438H86.75L105.25 156.688L94.875 166.562L81.375 179.938C79.75 181.438 79 183.688 79 185.812C79 190.312 82.125 193.562 86.375 193.562C88.875 193.562 90.75 192.562 92.375 190.562L125.625 155.062C127.75 152.812 128.375 151.188 128.375 148.938C128.375 146.812 127.75 145.062 125.625 142.812L92.375 107.312C90.75 105.438 88.875 104.438 86.375 104.438C82.125 104.438 79 107.688 79 112.188C79 114.312 79.75 116.562 81.375 118.062L94.875 131.312L105.25 141.188L86.75 140.562H51.75C47.375 140.562 43.5 144.438 43.625 148.938Z" fill="#FF9F0A"/>
</g>
<defs>
<clipPath id="clip0_68_5527">
<rect width="295" height="295" fill="white" transform="translate(0 0.9375)"/>
</clipPath>
</defs>
</svg>
