<?xml version="1.0" encoding="UTF-8"?>
<!--Generator: Apple Native CoreSVG 232.5-->
<!DOCTYPE svg
PUBLIC "-//W3C//DTD SVG 1.1//EN"
       "http://www.w3.org/Graphics/SVG/1.1/DTD/svg11.dtd">
<svg version="1.1" xmlns="http://www.w3.org/2000/svg" xmlns:xlink="http://www.w3.org/1999/xlink" width="294.75" height="233.125">
 <g>
  <rect height="233.125" opacity="0" width="294.75" x="0" y="0"/>
  <path d="M39.25 233.125L255.5 233.125C281.75 233.125 294.75 220.125 294.75 194.375L294.75 41.75C294.75 16 281.75 3 255.5 3L39.25 3C13.125 3 0 15.875 0 41.75L0 194.375C0 220.25 13.125 233.125 39.25 233.125ZM39.5 213C27 213 20.125 206.25 20.125 193.375L20.125 42.75C20.125 29.75 27 23.125 39.5 23.125L255.25 23.125C267.625 23.125 274.625 29.75 274.625 42.75L274.625 193.375C274.625 206.25 267.625 213 255.25 213Z" fill="#ffffff" fill-opacity="0.85"/>
  <path d="M48.125 116.5L136.375 116.5C144.25 116.5 147.375 113.25 147.375 105.25L147.375 50C147.375 42 144.25 38.75 136.375 38.75L48.125 38.75C40.375 38.75 37.25 42 37.25 50L37.25 105.25C37.25 113.25 40.375 116.5 48.125 116.5Z" fill="#ffffff" fill-opacity="0.85"/>
 </g>
</svg>
