<?xml version="1.0" encoding="UTF-8"?>
<!--Generator: Apple Native CoreSVG 232.5-->
<!DOCTYPE svg
PUBLIC "-//W3C//DTD SVG 1.1//EN"
       "http://www.w3.org/Graphics/SVG/1.1/DTD/svg11.dtd">
<svg version="1.1" xmlns="http://www.w3.org/2000/svg" xmlns:xlink="http://www.w3.org/1999/xlink" width="294.75" height="230.125">
 <g>
  <rect height="230.125" opacity="0" width="294.75" x="0" y="0"/>
  <path d="M39.25 230.125L255.5 230.125C281.75 230.125 294.75 217.25 294.75 191.5L294.75 38.75C294.75 13 281.75 0 255.5 0L39.25 0C13.125 0 0 13 0 38.75L0 191.5C0 217.25 13.125 230.125 39.25 230.125ZM39.5 210C27 210 20.125 203.375 20.125 190.375L20.125 39.875C20.125 26.875 27 20.125 39.5 20.125L255.25 20.125C267.625 20.125 274.625 26.875 274.625 39.875L274.625 190.375C274.625 203.375 267.625 210 255.25 210Z" fill="#ffffff" fill-opacity="0.85"/>
  <path d="M48.125 193L246.625 193C253.625 193 257.625 188.875 257.625 181.75L257.625 126.125C257.625 119 253.625 114.875 246.625 114.875L48.125 114.875C41.125 114.875 37.25 119 37.25 126.125L37.25 181.75C37.25 188.875 41.125 193 48.125 193Z" fill="#ffffff" fill-opacity="0.85"/>
 </g>
</svg>
